<svg width="220" height="50" viewBox="0 0 220 50" fill="none" xmlns="http://www.w3.org/2000/svg">
  <!-- Dunkler Cyber-Hintergrund mit abgeschnittener Ecke rechts unten -->
  <path d="M0 0H220V38L208 50H0V0Z" fill="#0d1117"/>
  
  <!-- Neon-Cyan Rahmen -->
  <path d="M1 1H219V37.5L207.5 49H1V1Z" stroke="#00f0ff" stroke-width="2"/>
  
  <!-- Kleines Cyber-Dekorelement oben links -->
  <rect x="6" y="6" width="4" height="4" fill="#00f0ff"/>
  <rect x="14" y="6" width="12" height="2" fill="#00f0ff"/>
  
  <!-- Weltkugel/Web-Icon -->
  <g transform="translate(30, 15)">
    <circle cx="10" cy="10" r="9" stroke="#00f0ff" stroke-width="1.5"/>
    <path d="M10 1V19M1 10H19M3 5.5C3 5.5 6.5 8 6.5 10C6.5 12 3 14.5 3 14.5M17 5.5C17 5.5 13.5 8 13.5 10C13.5 12 17 14.5 17 14.5" stroke="#00f0ff" stroke-width="1.5"/>
  </g>
  
  <!-- Text -->
  <text x="65" y="31" fill="#ffffff" font-family="Courier New, monospace" font-size="14" font-weight="bold" letter-spacing="1">WEBSITE.EXE</text>
  
  <!-- Akzent-Ecke unten rechts ausgefüllt -->
  <path d="M213 45L217 41V49H209L213 45Z" fill="#00f0ff"/>
</svg>
